<?xml version="1.0" encoding="UTF-8" standalone="no"?>
<!-- Created with Inkscape (http://www.inkscape.org/) -->

<svg
   width="54.955002mm"
   height="47.947002mm"
   viewBox="0 0 54.955002 47.947002"
   version="1.1"
   id="svg1"
   xml:space="preserve"
   xmlns="http://www.w3.org/2000/svg"
   xmlns:svg="http://www.w3.org/2000/svg"><defs
     id="defs1" /><g
     id="layer1"
     transform="translate(-80.218889,-59.629694)"><g
       style="fill:#000000"
       id="g3"
       transform="matrix(0.11620109,0,0,0.12157138,66.152866,50.501282)"><g
         id="g2"
         style="fill:#000000;fill-opacity:1"
         transform="matrix(0,-0.84032474,0.92365068,0,162.02996,478.57955)">
	<g
   id="g1"
   style="fill:#000000;fill-opacity:1">
		<path
   d="m 479.90481,93.338299 c -0.085,-1.003 -0.149,-2.005 -0.555,-2.987 -0.107,-0.256 -0.32,-0.427 -0.448,-0.683 -0.277,-0.533 -0.597,-0.981 -0.96,-1.472 -0.725,-1.003 -1.536,-1.835 -2.517,-2.517 -0.256,-0.171 -0.363,-0.491 -0.64,-0.64 l -224,-127.999997 c -3.285,-1.877 -7.296,-1.877 -10.581,0 L 16.203813,85.039299 c -0.256,0.171 -0.363,0.469 -0.619,0.64 -1.024,0.704 -1.899,1.557 -2.645,2.624 -0.299,0.427 -0.597,0.811 -0.832,1.28 -0.149,0.277 -0.384,0.469 -0.512,0.768 -0.469,1.173 -0.619,2.389 -0.661,3.584 0,0.128 -0.107,0.256 -0.107,0.384 v 0.171 0.043 234.304001 0.085 0.064 c 0,0.213 0.149,0.405 0.171,0.619 0.085,1.493 0.32,2.987 1.045,4.352 0.043,0.085 0.128,0.107 0.171,0.192 0.277,0.491 0.768,0.811 1.131,1.259 0.789,0.981 1.557,1.941 2.603,2.603 0.107,0.064 0.149,0.192 0.235,0.235 l 223.999997,128 c 1.664,0.939 3.477,1.408 5.312,1.408 1.835,0 3.648,-0.469 5.291,-1.408 l 224,-128 c 0.107,-0.064 0.149,-0.192 0.256,-0.256 0.981,-0.597 1.664,-1.493 2.411,-2.389 0.427,-0.512 1.003,-0.896 1.323,-1.472 0.043,-0.064 0.107,-0.107 0.149,-0.171 0.576,-1.109 0.683,-2.325 0.853,-3.52 0.064,-0.491 0.384,-0.939 0.384,-1.451 V 94.319299 c -0.002,-0.341 -0.236,-0.64 -0.258,-0.981 z m -34.901,-0.726 -78.251,31.296001 -86.058,-125.1839978 z m -199.509,-107.476997 97.067,141.183998 h -194.134 z M 210.23081,-1.2536978 124.19381,123.9093 45.963813,92.612299 Z M 32.160813,110.0633 l 80.767997,32.32 -80.767997,145.408 z m 95.957997,48.96 98.325,178.773 -187.711997,-17.877 z m 106.709,279.573 -165.119997,-94.336 165.119997,15.573 z m 10.667,-110.421 -99.285,-180.523 h 198.571 z m 10.666,110.421 v -78.571 l 165.035,-15.723 z m 8.32,-100.608 98.411,-178.901 89.365,160.853 z m 194.347,-50.154 -80.811,-145.451 80.811,-32.32 z"
   id="path1"
   style="color:#000000;font-style:normal;font-variant:normal;font-weight:normal;font-stretch:normal;font-size:medium;line-height:normal;font-family:sans-serif;font-variant-ligatures:normal;font-variant-position:normal;font-variant-caps:normal;font-variant-numeric:normal;font-variant-alternates:normal;font-variant-east-asian:normal;font-feature-settings:normal;font-variation-settings:normal;text-indent:0;text-align:start;text-decoration-line:none;text-decoration-style:solid;text-decoration-color:#000000;letter-spacing:normal;word-spacing:normal;text-transform:none;writing-mode:lr-tb;direction:ltr;text-orientation:mixed;dominant-baseline:auto;baseline-shift:baseline;text-anchor:start;white-space:normal;shape-padding:0;shape-margin:0;inline-size:0;clip-rule:nonzero;display:inline;overflow:visible;visibility:visible;opacity:1;isolation:auto;mix-blend-mode:normal;color-interpolation:sRGB;color-interpolation-filters:linearRGB;solid-color:#000000;solid-opacity:1;fill:#a34752;fill-opacity:1;fill-rule:nonzero;stroke:none;stroke-width:138.479;stroke-linecap:butt;stroke-linejoin:miter;stroke-miterlimit:4;stroke-dasharray:none;stroke-dashoffset:0;stroke-opacity:1;color-rendering:auto;image-rendering:auto;shape-rendering:auto;text-rendering:auto;enable-background:accumulate;stop-color:#000000;stop-opacity:1" />
	</g>
</g></g></g></svg>
